# xmcd
#
# Track frame offsets:
#	150
#	10234
#	23125
#	35432
#	45847
#	57695
#	69857
#	79307
#	91795
#	101537
#	114517
#	128645
#	139985
#	150020
#	159240
#	172530
#	185665
#	199060
#	210772
#	220107
#
# Disc length: 3070 seconds
#
# Revision: 0
# Processed by: cddbd v1.5.1PL0 Copyright (c) Steve Scherf et al.
# Submitted via: dBpowerAMP V4.0
#
DISCID=f00bfc14
DTITLE=Banda el recodo - Puros Exitos
DYEAR=1900
DGENRE=
TTITLE0=El sinaloense
TTITLE1=El sauce y la palma
TTITLE2=Tu y las nubes
TTITLE3=Acábame de matar
TTITLE4=Un dia con otro
TTITLE5=Sonora querida
TTITLE6=La banda dominguera
TTITLE7=Hace un año
TTITLE8=Que retumbe la tambora
TTITLE9=Albur de amor
TTITLE10=El novillo despuntado
TTITLE11=El palo verde
TTITLE12=El abandonado
TTITLE13=La carcel de cananea 
TTITLE14=Por una mujer casada
TTITLE15=El dia de san juan(el 24 de junio)
TTITLE16=Una noche serena y oscura
TTITLE17=En otros tiempos
TTITLE18=El bandolero
TTITLE19=Que me enierren con la banda
EXTD=
EXTT0=
EXTT1=
EXTT2=
EXTT3=
EXTT4=
EXTT5=
EXTT6=
EXTT7=
EXTT8=
EXTT9=
EXTT10=
EXTT11=
EXTT12=
EXTT13=
EXTT14=
EXTT15=
EXTT16=
EXTT17=
EXTT18=
EXTT19=
PLAYORDER=
